<?xml version="1.0" encoding="UTF-8" standalone="no"?>
<svg
   aria-hidden="true"
   width="140.289"
   height="55.999"
   viewBox="0 0 37.118 31.123"
   version="1.1"
   id="svg4"
   sodipodi:docname="tapws-light.svg"
   inkscape:version="1.1.2 (0a00cf5339, 2022-02-04, custom)"
   xmlns:inkscape="http://www.inkscape.org/namespaces/inkscape"
   xmlns:sodipodi="http://sodipodi.sourceforge.net/DTD/sodipodi-0.dtd"
   xmlns="http://www.w3.org/2000/svg"
   xmlns:svg="http://www.w3.org/2000/svg">
  <defs
     id="defs8" />
  <sodipodi:namedview
     id="namedview6"
     pagecolor="#ffffff"
     bordercolor="#666666"
     borderopacity="1.0"
     inkscape:pageshadow="2"
     inkscape:pageopacity="0.0"
     inkscape:pagecheckerboard="0"
     showgrid="false"
     inkscape:zoom="9.4661733"
     inkscape:cx="70.091681"
     inkscape:cy="27.994417"
     inkscape:window-width="1920"
     inkscape:window-height="1008"
     inkscape:window-x="0"
     inkscape:window-y="0"
     inkscape:window-maximized="1"
     inkscape:current-layer="svg4" />
  <path
     id="path163"
     style="fill:#ffffff;stroke-width:1.07282;stroke-linecap:round;stroke-linejoin:round"
     d="M 11.388672 9.4941406 A 0.905038 0.905038 0 0 0 10.666016 9.8105469 C 10.576052 9.9005109 10.507873 10.007076 10.462891 10.126953 C 10.417909 10.24683 10.396484 10.38101 10.396484 10.53125 L 10.396484 18.068359 L 6.8320312 18.068359 A 0.905038 0.905038 0 0 0 6.1074219 18.384766 C 6.0174579 18.475629 5.951232 18.58107 5.90625 18.701172 C 5.861268 18.821274 5.8378906 18.957182 5.8378906 19.107422 L 5.8378906 20.550781 A 0.97341065 0.97341065 0 0 0 6.1074219 21.275391 A 0.97700921 0.97700921 0 0 0 6.8320312 21.544922 L 10.396484 21.544922 L 10.396484 33.638672 C 10.396484 33.967828 10.40561 34.287139 10.423828 34.595703 C 10.442046 34.904267 10.469424 35.20226 10.505859 35.490234 C 10.542295 35.778209 10.587925 36.056831 10.642578 36.324219 C 10.697231 36.591606 10.761114 36.8489 10.833984 37.095703 C 10.906855 37.342507 10.987036 37.578464 11.078125 37.804688 C 11.169214 38.03091 11.2696 38.247482 11.378906 38.453125 C 11.488213 38.658768 11.606851 38.853995 11.734375 39.039062 C 11.861899 39.224131 11.99879 39.398006 12.144531 39.5625 C 12.290273 39.726994 12.445416 39.881468 12.609375 40.025391 C 12.773334 40.169313 12.946729 40.302427 13.128906 40.425781 C 13.311083 40.549136 13.50273 40.662836 13.703125 40.765625 C 13.90352 40.868414 14.111466 40.960743 14.330078 41.042969 C 14.548691 41.125194 14.776842 41.1981 15.013672 41.259766 C 15.250502 41.321431 15.496905 41.371002 15.751953 41.412109 C 16.007001 41.453217 16.271656 41.485307 16.544922 41.505859 C 16.818188 41.526412 17.099142 41.537109 17.390625 41.537109 L 20.460938 41.537109 C 20.611177 41.537109 20.74686 41.513732 20.867188 41.46875 C 20.987514 41.423768 21.091677 41.355589 21.181641 41.265625 C 21.271605 41.161267 21.339784 41.045943 21.384766 40.917969 C 21.429748 40.789995 21.453125 40.65024 21.453125 40.5 L 21.453125 39.009766 C 21.453125 38.859526 21.429748 38.723842 21.384766 38.603516 C 21.339784 38.483189 21.271605 38.379028 21.181641 38.289062 A 0.89964016 0.89964016 0 0 0 20.458984 37.972656 L 17.707031 37.972656 C 17.406551 37.972656 17.126635 37.94744 16.869141 37.898438 C 16.611647 37.849434 16.376561 37.775683 16.162109 37.677734 C 16.054884 37.62876 15.951924 37.574872 15.855469 37.513672 C 15.759014 37.452472 15.667708 37.383966 15.582031 37.310547 C 15.496355 37.237128 15.416688 37.157897 15.341797 37.072266 C 15.266905 36.986635 15.196913 36.894711 15.132812 36.796875 C 15.012711 36.601653 14.908352 36.383022 14.818359 36.140625 C 14.728367 35.898228 14.653689 35.633209 14.59375 35.34375 C 14.533811 35.054291 14.488926 34.740706 14.458984 34.404297 C 14.429043 34.067888 14.414063 33.707465 14.414062 33.324219 L 14.414062 21.542969 L 20.011719 21.542969 A 0.97161137 0.97161137 0 0 0 20.730469 21.273438 A 0.90323872 0.90323872 0 0 0 20.828125 21.177734 A 0.90323872 0.90323872 0 0 0 20.908203 21.068359 A 0.90323872 0.90323872 0 0 0 20.972656 20.949219 A 0.90323872 0.90323872 0 0 0 21.017578 20.820312 A 0.90323872 0.90323872 0 0 0 21.042969 20.6875 A 0.90323872 0.90323872 0 0 0 21.046875 20.550781 L 21.046875 19.107422 C 21.046875 18.957182 21.021604 18.821499 20.96875 18.701172 C 20.915896 18.580845 20.835727 18.47473 20.730469 18.384766 A 0.89964016 0.89964016 0 0 0 20.009766 18.070312 L 14.414062 18.070312 L 14.414062 10.53125 C 14.414064 10.38101 14.386838 10.245327 14.333984 10.125 C 14.281131 10.004673 14.202914 9.9005109 14.097656 9.8105469 C 14.006793 9.705289 13.901352 9.6266228 13.78125 9.5742188 C 13.661148 9.5218146 13.52524 9.4941406 13.375 9.4941406 L 11.390625 9.4941406 L 11.388672 9.4941406 z M 34.722656 17.619141 C 34.233702 17.619141 33.763894 17.640383 33.3125 17.683594 C 32.861106 17.726805 32.427506 17.790475 32.013672 17.876953 C 31.599837 17.963431 31.204399 18.073324 30.828125 18.203125 C 30.451851 18.332926 30.094574 18.483069 29.755859 18.65625 C 29.417595 18.821784 29.101723 18.995501 28.806641 19.177734 C 28.511559 19.359968 28.238227 19.550955 27.986328 19.75 C 27.734429 19.949045 27.503638 20.157077 27.294922 20.373047 C 27.086205 20.589017 26.897956 20.813868 26.732422 21.046875 C 26.574535 21.273134 26.43669 21.492285 26.318359 21.705078 C 26.200029 21.917871 26.102268 22.122883 26.023438 22.322266 C 25.944606 22.521648 25.88509 22.714362 25.845703 22.900391 C 25.806316 23.086419 25.787109 23.266722 25.787109 23.439453 A 1.0759696 1.0759696 0 0 0 26.056641 24.162109 A 1.0795682 1.0795682 0 0 0 26.779297 24.431641 L 28.539062 24.431641 C 28.659615 24.431641 28.76528 24.421153 28.855469 24.398438 C 28.945658 24.375721 29.021755 24.340804 29.082031 24.294922 C 29.156701 24.235546 29.226999 24.153861 29.294922 24.048828 C 29.362845 23.943795 29.428005 23.816256 29.488281 23.666016 C 29.585892 23.477541 29.698297 23.296271 29.824219 23.121094 C 29.95014 22.945917 30.089965 22.777057 30.244141 22.615234 C 30.398316 22.453412 30.565673 22.298803 30.748047 22.150391 C 30.930421 22.001978 31.127375 21.859555 31.337891 21.724609 C 31.548406 21.581567 31.775082 21.456723 32.019531 21.349609 C 32.26398 21.242496 32.52636 21.153328 32.804688 21.082031 C 33.083014 21.010735 33.377306 20.957467 33.689453 20.921875 C 34.0016 20.886283 34.331823 20.867188 34.677734 20.867188 C 35.125305 20.867188 35.543922 20.892994 35.935547 20.941406 C 36.327171 20.989818 36.691666 21.061379 37.027344 21.158203 C 37.195183 21.206615 37.355913 21.261751 37.509766 21.322266 C 37.663618 21.38278 37.809353 21.448867 37.949219 21.521484 C 38.089085 21.594102 38.221777 21.673092 38.347656 21.757812 C 38.473536 21.842534 38.593185 21.932473 38.705078 22.029297 C 38.816971 22.126121 38.921625 22.228964 39.019531 22.337891 C 39.117437 22.446817 39.209049 22.562564 39.292969 22.683594 C 39.376888 22.804623 39.453504 22.93132 39.523438 23.064453 C 39.59337 23.197586 39.656944 23.337186 39.712891 23.482422 C 39.768837 23.627658 39.817415 23.778208 39.859375 23.935547 C 39.901335 24.092886 39.936871 24.25634 39.964844 24.425781 C 40.02079 24.764664 40.048828 25.12833 40.048828 25.515625 L 40.048828 26.826172 L 33.277344 27.771484 C 32.927609 27.824338 32.587264 27.88326 32.255859 27.949219 C 31.924454 28.015177 31.602138 28.088899 31.289062 28.167969 C 30.975988 28.247039 30.671698 28.33164 30.376953 28.423828 C 30.082209 28.516017 29.795946 28.615389 29.519531 28.720703 C 29.243117 28.826017 28.976834 28.938194 28.71875 29.056641 C 28.460666 29.175087 28.21241 29.300054 27.972656 29.431641 C 27.732902 29.563227 27.500721 29.70097 27.279297 29.845703 C 27.057873 29.990436 26.845672 30.142894 26.642578 30.300781 C 26.439484 30.458668 26.249948 30.621827 26.072266 30.791016 C 25.894583 30.960204 25.730403 31.133963 25.578125 31.314453 C 25.425847 31.494943 25.285084 31.681255 25.158203 31.873047 C 25.031322 32.064839 24.917897 32.26175 24.816406 32.464844 C 24.714916 32.667938 24.624936 32.877401 24.548828 33.091797 C 24.472721 33.306192 24.410106 33.526256 24.359375 33.751953 C 24.308644 33.97765 24.269503 34.208314 24.244141 34.445312 C 24.218779 34.682312 24.207031 34.925527 24.207031 35.173828 A 6.0131947 6.0131947 0 0 0 24.480469 36.996094 A 6.0131947 6.0131947 0 0 0 25.291016 38.648438 A 7.9348262 7.9348262 0 0 0 26.628906 40.052734 A 7.9348262 7.9348262 0 0 0 28.267578 41.087891 A 9.4282288 9.4282288 0 0 0 30.269531 41.769531 A 9.4282288 9.4282288 0 0 0 32.373047 41.988281 C 32.869648 41.988281 33.345312 41.966996 33.796875 41.925781 C 34.248438 41.884566 34.677572 41.822776 35.083984 41.740234 C 35.490397 41.657692 35.873226 41.555622 36.234375 41.431641 C 36.595524 41.307659 36.934226 41.161628 37.25 40.996094 C 37.565774 40.83056 37.862383 40.654976 38.140625 40.46875 C 38.418867 40.282524 38.679156 40.085823 38.919922 39.878906 C 39.160688 39.671989 39.38259 39.454172 39.585938 39.226562 C 39.789284 38.998954 39.974641 38.761973 40.140625 38.513672 L 40.140625 40.5 A 1.1389444 1.1389444 0 0 0 40.410156 41.265625 C 40.50102 41.355589 40.606461 41.423768 40.726562 41.46875 C 40.846665 41.513732 40.980619 41.537109 41.130859 41.537109 L 43.117188 41.537109 C 43.267427 41.537109 43.40311 41.513732 43.523438 41.46875 C 43.643764 41.423768 43.74988 41.355589 43.839844 41.265625 A 1.0435826 1.0435826 0 0 0 43.921875 41.175781 A 1.0435826 1.0435826 0 0 0 43.992188 41.078125 A 1.0435826 1.0435826 0 0 0 44.050781 40.970703 A 1.0435826 1.0435826 0 0 0 44.097656 40.859375 A 1.0435826 1.0435826 0 0 0 44.130859 40.742188 A 1.0435826 1.0435826 0 0 0 44.148438 40.621094 A 1.0435826 1.0435826 0 0 0 44.154297 40.5 L 44.154297 25.830078 C 44.154297 25.536795 44.142141 25.249782 44.119141 24.96875 C 44.09614 24.687718 44.061633 24.413327 44.015625 24.144531 C 43.969617 23.875736 43.912773 23.612042 43.84375 23.355469 C 43.774727 23.098896 43.693608 22.849834 43.601562 22.605469 C 43.509518 22.361104 43.406089 22.122795 43.291016 21.890625 C 43.175943 21.658455 43.050218 21.430928 42.912109 21.210938 C 42.774001 20.990946 42.624042 20.778137 42.462891 20.570312 C 42.301739 20.362489 42.129515 20.160515 41.945312 19.964844 C 41.76471 19.769172 41.568103 19.585227 41.357422 19.414062 C 41.146741 19.242899 40.92044 19.084169 40.679688 18.9375 C 40.438934 18.790831 40.182926 18.657346 39.912109 18.535156 C 39.641293 18.412967 39.355561 18.302802 39.054688 18.205078 C 38.753813 18.107355 38.438345 18.020537 38.107422 17.947266 C 37.776498 17.873994 37.43128 17.814459 37.070312 17.765625 C 36.709346 17.716791 36.332409 17.678707 35.941406 17.654297 C 35.550404 17.629887 35.145641 17.619141 34.724609 17.619141 L 34.722656 17.619141 z M 62.162109 17.619141 L 62.162109 17.621094 C 61.759745 17.621094 61.369598 17.637621 60.990234 17.673828 C 60.610871 17.710035 60.243075 17.765484 59.886719 17.837891 C 59.530363 17.910298 59.184905 18.000775 58.851562 18.109375 C 58.518221 18.217975 58.197038 18.343495 57.886719 18.488281 C 57.576399 18.633067 57.277525 18.797551 56.990234 18.978516 C 56.702943 19.15948 56.426365 19.357082 56.162109 19.574219 C 55.897854 19.791355 55.645509 20.027949 55.404297 20.28125 C 55.163084 20.534551 54.933006 20.806244 54.714844 21.095703 L 54.714844 19.107422 C 54.714844 18.941888 54.691916 18.795718 54.646484 18.667969 C 54.601053 18.54022 54.533323 18.431761 54.443359 18.341797 C 54.353395 18.251833 54.244936 18.183654 54.117188 18.138672 C 53.989438 18.09369 53.843268 18.072266 53.677734 18.072266 L 51.78125 18.072266 C 51.63191 18.072266 51.493208 18.09369 51.365234 18.138672 C 51.237261 18.183654 51.11893 18.251833 51.013672 18.341797 C 50.923708 18.431761 50.857482 18.54022 50.8125 18.667969 C 50.767518 18.795718 50.744141 18.941888 50.744141 19.107422 L 50.744141 49.074219 C 50.744141 49.239753 50.767518 49.385473 50.8125 49.513672 C 50.857482 49.641871 50.923708 49.751833 51.013672 49.841797 A 1.142543 1.142543 0 0 0 51.78125 50.113281 L 53.8125 50.113281 A 0.90323872 0.90323872 0 0 0 54.535156 49.796875 A 0.90323872 0.90323872 0 0 0 54.632812 49.701172 A 0.90323872 0.90323872 0 0 0 54.712891 49.591797 A 0.90323872 0.90323872 0 0 0 54.775391 49.470703 A 0.90323872 0.90323872 0 0 0 54.820312 49.34375 A 0.90323872 0.90323872 0 0 0 54.845703 49.208984 A 0.90323872 0.90323872 0 0 0 54.851562 49.074219 L 54.851562 38.558594 C 55.058481 38.844454 55.276485 39.113178 55.507812 39.363281 C 55.739141 39.613385 55.98253 39.84424 56.238281 40.058594 C 56.494032 40.272947 56.76278 40.469826 57.042969 40.648438 C 57.323157 40.827048 57.615281 40.987985 57.919922 41.130859 C 58.224563 41.273733 58.541987 41.398714 58.871094 41.505859 C 59.2002 41.613004 59.540945 41.702014 59.894531 41.773438 C 60.248118 41.84486 60.614106 41.897886 60.992188 41.933594 C 61.370268 41.969302 61.75952 41.988281 62.162109 41.988281 C 62.557051 41.988281 62.940563 41.972894 63.310547 41.941406 C 63.680531 41.909919 64.037772 41.861803 64.382812 41.798828 C 64.727854 41.735853 65.060749 41.656962 65.380859 41.5625 C 65.70097 41.468038 66.00754 41.358371 66.302734 41.232422 C 66.597929 41.106472 66.882051 40.964078 67.152344 40.806641 C 67.422636 40.649204 67.680376 40.476034 67.925781 40.287109 C 68.171186 40.098185 68.404469 39.89424 68.625 39.673828 C 68.845531 39.453416 69.052375 39.216743 69.248047 38.964844 C 69.447317 38.71272 69.63478 38.452091 69.810547 38.183594 C 69.986314 37.915097 70.15047 37.638406 70.302734 37.353516 C 70.454998 37.068625 70.595848 36.775915 70.724609 36.474609 C 70.85337 36.173304 70.970914 35.864617 71.076172 35.546875 C 71.18143 35.229133 71.273714 34.902558 71.355469 34.568359 C 71.437224 34.234161 71.508155 33.891693 71.566406 33.541016 C 71.624658 33.190339 71.67033 32.83202 71.705078 32.464844 C 71.739827 32.097668 71.764145 31.721587 71.775391 31.337891 C 71.805978 31.006823 71.820312 30.495457 71.820312 29.802734 C 71.820313 29.110011 71.805978 28.598646 71.775391 28.267578 C 71.764145 27.880283 71.739827 27.502734 71.705078 27.132812 C 71.67033 26.762892 71.624658 26.401375 71.566406 26.048828 C 71.508155 25.696282 71.437224 25.35275 71.355469 25.017578 C 71.273714 24.682406 71.18143 24.354907 71.076172 24.037109 C 70.970914 23.719311 70.85337 23.411752 70.724609 23.111328 C 70.595848 22.810905 70.454998 22.519377 70.302734 22.236328 C 70.15047 21.953279 69.986314 21.677784 69.810547 21.412109 C 69.63478 21.146434 69.447317 20.888926 69.248047 20.640625 C 69.052375 20.388726 68.845531 20.154006 68.625 19.933594 C 68.404469 19.713182 68.171186 19.507284 67.925781 19.318359 C 67.680376 19.129435 67.422636 18.956265 67.152344 18.798828 C 66.882051 18.641391 66.597929 18.50095 66.302734 18.375 C 66.00754 18.24905 65.70097 18.137431 65.380859 18.042969 C 65.060749 17.948507 64.727854 17.869615 64.382812 17.806641 C 64.037772 17.743666 63.680531 17.697503 63.310547 17.666016 C 62.940563 17.634528 62.557051 17.619141 62.162109 17.619141 z M 120.20117 17.619141 C 119.75027 17.619202 119.3134 17.638533 118.89258 17.679688 C 118.47112 17.720902 118.06506 17.782692 117.67383 17.865234 C 117.2826 17.947776 116.90587 18.0518 116.54492 18.175781 C 116.18397 18.299763 115.83843 18.443841 115.50781 18.609375 C 115.18394 18.767712 114.87979 18.940518 114.5957 19.125 C 114.31161 19.309482 114.0471 19.506056 113.80273 19.716797 C 113.55837 19.927538 113.3336 20.15156 113.12891 20.388672 C 112.92421 20.625783 112.7393 20.87703 112.57422 21.140625 C 112.40868 21.395673 112.26479 21.653139 112.14062 21.914062 C 112.01647 22.174987 111.91285 22.438222 111.83008 22.705078 C 111.74731 22.971934 111.68591 23.242781 111.64453 23.515625 C 111.60315 23.788469 111.58203 24.062908 111.58203 24.341797 C 111.58203 24.555911 111.5905 24.766334 111.60742 24.970703 C 111.62435 25.175073 111.64974 25.37377 111.68359 25.568359 C 111.71744 25.762949 111.75977 25.953898 111.81055 26.138672 C 111.86132 26.323446 111.92058 26.502811 111.98828 26.677734 C 112.05598 26.852658 112.13217 27.022462 112.2168 27.1875 C 112.30142 27.352538 112.39455 27.512851 112.49609 27.667969 C 112.59764 27.823086 112.7077 27.972025 112.82617 28.117188 C 112.94464 28.262349 113.07164 28.403892 113.20703 28.539062 C 113.34243 28.674684 113.48909 28.806014 113.64844 28.933594 C 113.80779 29.061174 113.97879 29.185147 114.16211 29.304688 C 114.34543 29.424227 114.54076 29.538891 114.74805 29.650391 C 114.95533 29.76189 115.17499 29.869198 115.40625 29.972656 C 115.63751 30.076115 115.88147 30.176066 116.13672 30.271484 C 116.39197 30.366902 116.65826 30.457544 116.9375 30.544922 C 117.49598 30.719677 118.10332 30.878891 118.75781 31.021484 C 119.72043 31.232 120.56297 31.435188 121.28516 31.630859 C 122.00734 31.826531 122.60854 32.015384 123.08984 32.195312 C 123.33814 32.285727 123.56871 32.378573 123.78125 32.474609 C 123.99379 32.570646 124.18846 32.669825 124.36523 32.771484 C 124.54201 32.873144 124.70078 32.976702 124.8418 33.083984 C 124.98282 33.191266 125.10568 33.301158 125.21094 33.414062 C 125.3162 33.526519 125.40934 33.649734 125.48828 33.78125 C 125.56722 33.912766 125.63292 34.05266 125.68555 34.203125 C 125.73818 34.35359 125.77642 34.514293 125.80273 34.683594 C 125.82905 34.852895 125.84375 35.030725 125.84375 35.21875 C 125.84375 35.361568 125.83583 35.500382 125.82031 35.634766 C 125.80479 35.769149 125.78104 35.899441 125.75 36.025391 C 125.71896 36.15134 125.67937 36.27311 125.63281 36.390625 C 125.58626 36.50814 125.53278 36.621387 125.4707 36.730469 C 125.40863 36.83955 125.33931 36.944275 125.26172 37.044922 C 125.18412 37.145569 125.09897 37.241771 125.00586 37.333984 C 124.91275 37.426197 124.81177 37.513877 124.70312 37.597656 C 124.59449 37.681435 124.47767 37.762546 124.35352 37.837891 C 124.11286 37.98858 123.8504 38.119489 123.56836 38.232422 C 123.28632 38.345355 122.98358 38.440393 122.66016 38.515625 C 122.33674 38.590857 121.99371 38.646006 121.62891 38.683594 C 121.2641 38.721182 120.87884 38.740234 120.47266 38.740234 C 120.1119 38.740234 119.76855 38.725451 119.44336 38.695312 C 119.11817 38.665175 118.81106 38.61887 118.52148 38.558594 C 118.23191 38.498318 117.95897 38.424398 117.70508 38.333984 C 117.45118 38.243571 117.21621 38.13813 116.99805 38.017578 C 116.78708 37.897476 116.58026 37.765865 116.37891 37.623047 C 116.17756 37.480229 115.98091 37.32569 115.78906 37.160156 C 115.59721 36.994622 115.41097 36.817156 115.22852 36.628906 C 115.04606 36.440657 114.86849 36.242216 114.69531 36.03125 C 114.60535 35.925992 114.52239 35.838957 114.44727 35.771484 C 114.37215 35.704011 114.30352 35.654688 114.24414 35.625 C 114.19826 35.594412 114.14192 35.573438 114.07422 35.558594 C 114.00652 35.54375 113.92785 35.535156 113.83789 35.535156 L 111.94336 35.535156 C 111.82281 35.535156 111.70688 35.558534 111.59375 35.603516 C 111.48062 35.648498 111.37089 35.716677 111.26562 35.806641 C 111.213 35.844426 111.16634 35.886531 111.12695 35.933594 C 111.08757 35.980656 111.0555 36.031438 111.0293 36.087891 C 110.97689 36.200795 110.95117 36.333235 110.95117 36.484375 C 110.95117 36.626968 110.97244 36.777827 111.01562 36.939453 C 111.05882 37.101079 111.12262 37.272635 111.20898 37.453125 C 111.29535 37.633615 111.40365 37.824251 111.5332 38.023438 C 111.66275 38.222623 111.8136 38.430724 111.98633 38.648438 C 112.15996 38.8666 112.3558 39.080192 112.57422 39.287109 C 112.79263 39.494027 113.03361 39.694953 113.29688 39.890625 C 113.56013 40.086297 113.84614 40.27651 114.1543 40.460938 C 114.46245 40.645364 114.79338 40.822913 115.14648 40.996094 C 115.50769 41.161628 115.88847 41.307659 116.28906 41.431641 C 116.68966 41.555622 117.11074 41.657692 117.55078 41.740234 C 117.99082 41.822776 118.45015 41.884566 118.92969 41.925781 C 119.40922 41.966996 119.90864 41.988281 120.42773 41.988281 C 120.93153 41.988281 121.41653 41.96906 121.88477 41.931641 C 122.353 41.894221 122.80371 41.838679 123.23633 41.763672 C 123.66894 41.688664 124.08353 41.595186 124.48047 41.482422 C 124.87741 41.369658 125.25598 41.236627 125.61719 41.085938 C 125.98559 40.935247 126.33092 40.77046 126.65234 40.591797 C 126.97377 40.413134 127.27236 40.220477 127.54688 40.013672 C 127.82138 39.806867 128.07314 39.586679 128.30078 39.351562 C 128.52842 39.116447 128.73128 38.86711 128.91211 38.603516 C 129.09968 38.340371 129.26532 38.069229 129.40625 37.791016 C 129.54718 37.512802 129.66369 37.226876 129.75781 36.933594 C 129.85194 36.640311 129.92356 36.339602 129.9707 36.03125 C 130.01785 35.722898 130.04102 35.407405 130.04102 35.083984 C 130.04102 34.865822 130.03051 34.653584 130.01172 34.445312 C 129.99293 34.237042 129.96532 34.032369 129.92773 33.833984 C 129.89015 33.6356 129.84351 33.442412 129.78711 33.253906 C 129.73071 33.0654 129.66508 32.88176 129.58984 32.703125 C 129.51461 32.52449 129.43001 32.350411 129.33594 32.181641 C 129.24186 32.01287 129.13832 31.850319 129.02539 31.691406 C 128.91246 31.532493 128.79001 31.377578 128.6582 31.228516 C 128.5264 31.079453 128.38506 30.936094 128.23438 30.796875 C 128.08772 30.657656 127.92687 30.521811 127.75391 30.390625 C 127.58095 30.259439 127.39655 30.132932 127.19727 30.009766 C 126.99798 29.886599 126.78421 29.767505 126.55859 29.652344 C 126.33298 29.537183 126.09571 29.425529 125.84375 29.318359 C 125.59179 29.21119 125.32518 29.108958 125.04688 29.009766 C 124.76856 28.910573 124.47848 28.813885 124.17383 28.722656 C 123.56452 28.540198 122.90226 28.373346 122.1875 28.222656 C 121.26987 28.027434 120.46549 27.836687 119.77344 27.648438 C 119.08139 27.460187 118.50012 27.275631 118.0332 27.095703 C 117.8002 26.998092 117.58608 26.898435 117.39062 26.798828 C 117.19518 26.699221 117.01921 26.599594 116.86133 26.498047 C 116.70344 26.3965 116.56369 26.292884 116.44336 26.189453 C 116.32303 26.086023 116.22144 25.982211 116.13867 25.876953 C 116.0559 25.764048 115.98395 25.645775 115.92188 25.521484 C 115.85979 25.397193 115.80896 25.266368 115.76758 25.130859 C 115.72619 24.995351 115.69452 24.855541 115.67383 24.708984 C 115.65314 24.562427 115.64258 24.40939 115.64258 24.251953 C 115.64258 23.996006 115.66779 23.752902 115.7168 23.523438 C 115.7658 23.293972 115.83955 23.078094 115.9375 22.875 C 116.03545 22.671906 116.15785 22.483476 116.30469 22.306641 C 116.45153 22.129805 116.62269 21.965143 116.81836 21.814453 C 117.01358 21.656566 117.23015 21.518721 117.46875 21.400391 C 117.70735 21.28206 117.96808 21.182347 118.25 21.103516 C 118.53192 21.024685 118.83496 20.967122 119.16016 20.927734 C 119.48535 20.888347 119.83277 20.867188 120.20117 20.867188 C 120.44947 20.867188 120.68645 20.875725 120.91406 20.890625 C 121.14167 20.905525 121.35949 20.927118 121.56641 20.957031 C 121.77332 20.986944 121.97002 21.025274 122.15625 21.070312 C 122.34248 21.115352 122.51806 21.16824 122.68359 21.228516 C 123.01466 21.333774 123.30443 21.454223 123.55273 21.589844 C 123.67688 21.657654 123.79107 21.72937 123.89453 21.804688 C 123.99799 21.880004 124.09106 21.958249 124.17383 22.041016 A 13.242703 13.242703 0 0 1 125.48047 23.349609 C 125.52545 23.432376 125.57845 23.504331 125.63867 23.566406 C 125.69889 23.628481 125.76645 23.681273 125.8418 23.722656 C 125.91714 23.76404 126.00144 23.793761 126.0918 23.814453 C 126.18215 23.835145 126.27951 23.845703 126.38477 23.845703 L 128.09961 23.845703 A 0.91763296 0.91763296 0 0 0 128.77734 23.574219 C 128.8826 23.484255 128.96127 23.382436 129.01367 23.269531 C 129.06608 23.156626 129.0918 23.033384 129.0918 22.898438 C 129.0918 22.755394 129.07055 22.603102 129.02734 22.443359 C 128.98413 22.283617 128.92046 22.116008 128.83398 21.939453 C 128.74751 21.762899 128.63957 21.578244 128.50977 21.384766 C 128.37996 21.191287 128.22787 20.98786 128.05469 20.777344 C 127.88915 20.566378 127.7009 20.363712 127.49219 20.166016 C 127.28347 19.96832 127.05463 19.776223 126.80273 19.591797 C 126.55084 19.407371 126.2775 19.22975 125.98242 19.058594 C 125.68734 18.887437 125.36951 18.72234 125.03125 18.564453 C 124.70018 18.406566 124.3512 18.268721 123.98438 18.150391 C 123.61754 18.03206 123.23267 17.9343 122.83008 17.855469 C 122.42749 17.776638 122.00671 17.717122 121.56836 17.677734 C 121.13063 17.638403 120.67652 17.619197 120.20312 17.619141 L 120.20117 17.619141 z M 76.107422 18.068359 L 76.107422 18.070312 A 0.92123152 0.92123152 0 0 0 75.429688 18.339844 A 0.92123152 0.92123152 0 0 0 75.160156 19.017578 L 75.25 19.46875 L 81.660156 40.410156 C 81.719532 40.605378 81.790055 40.774926 81.873047 40.917969 C 81.956039 41.061012 82.050992 41.176714 82.15625 41.267578 C 82.208429 41.31256 82.268367 41.352982 82.333984 41.386719 C 82.399602 41.420455 82.471838 41.448212 82.550781 41.470703 C 82.708668 41.515685 82.893 41.539063 83.103516 41.539062 L 84.728516 41.539062 C 84.924187 41.539062 85.101793 41.513803 85.263672 41.466797 C 85.425551 41.419791 85.571245 41.349872 85.699219 41.255859 C 85.827193 41.161847 85.937294 41.045315 86.03125 40.904297 C 86.125206 40.763278 86.201893 40.598181 86.261719 40.410156 L 91.542969 24.072266 L 96.824219 40.410156 C 96.884045 40.598181 96.960899 40.761494 97.054688 40.902344 C 97.148475 41.043194 97.25897 41.162072 97.386719 41.255859 C 97.514468 41.349647 97.658602 41.419959 97.820312 41.466797 C 97.982024 41.513634 98.16175 41.537109 98.357422 41.537109 L 99.984375 41.537109 C 100.19489 41.537109 100.37749 41.513732 100.53516 41.46875 C 100.61399 41.446259 100.68625 41.418502 100.75195 41.384766 C 100.81765 41.351029 100.87706 41.310607 100.92969 41.265625 C 101.03495 41.175661 101.13012 41.060787 101.21289 40.917969 C 101.29566 40.775151 101.36746 40.605378 101.42773 40.410156 L 107.83594 19.46875 L 107.92578 19.017578 A 0.91943224 0.91943224 0 0 0 107.90039 18.769531 A 0.91943224 0.91943224 0 0 0 107.80859 18.537109 A 0.91943224 0.91943224 0 0 0 107.65625 18.339844 A 0.91943224 0.91943224 0 0 0 107.45898 18.1875 A 0.91943224 0.91943224 0 0 0 107.22656 18.095703 A 0.91943224 0.91943224 0 0 0 106.97852 18.070312 L 105.12695 18.070312 C 104.97671 18.070312 104.83891 18.091737 104.71094 18.136719 C 104.58296 18.181701 104.46569 18.24988 104.36133 18.339844 C 104.27046 18.415414 104.19911 18.491286 104.14648 18.566406 C 104.09386 18.641526 104.06022 18.715446 104.04492 18.791016 L 98.945312 36.03125 L 93.529297 19.015625 C 93.498709 18.895973 93.450511 18.783217 93.382812 18.677734 C 93.315115 18.572252 93.228305 18.47473 93.123047 18.384766 C 93.070418 18.332137 93.013388 18.28565 92.951172 18.246094 C 92.888956 18.206538 92.821634 18.174864 92.75 18.148438 C 92.606732 18.095583 92.445553 18.068359 92.265625 18.068359 L 90.820312 18.068359 A 1.1587365 1.1587365 0 0 0 89.962891 18.384766 A 1.2091164 1.2091164 0 0 0 89.556641 19.015625 L 84.140625 36.033203 L 79.041016 18.791016 C 79.026621 18.715446 78.987785 18.641751 78.927734 18.566406 C 78.867683 18.491061 78.784945 18.41436 78.679688 18.337891 C 78.588823 18.247927 78.483383 18.181701 78.363281 18.136719 C 78.243179 18.091737 78.109224 18.068359 77.958984 18.068359 L 76.107422 18.068359 z M 61.304688 21.138672 C 61.571656 21.138672 61.829782 21.149301 62.080078 21.171875 C 62.330374 21.194449 62.573019 21.228289 62.806641 21.273438 C 63.040262 21.318585 63.265476 21.375641 63.482422 21.443359 C 63.699368 21.511078 63.907154 21.589399 64.107422 21.679688 C 64.30769 21.769975 64.500005 21.87152 64.683594 21.984375 C 64.867183 22.09723 65.042077 22.222001 65.208984 22.357422 C 65.375892 22.492842 65.535322 22.638891 65.685547 22.796875 C 65.835772 22.954859 65.977788 23.12414 66.111328 23.304688 C 66.244868 23.485234 66.369474 23.677752 66.486328 23.880859 C 66.603182 24.083966 66.712334 24.297771 66.8125 24.523438 C 66.912666 24.749103 67.004415 24.986153 67.087891 25.234375 C 67.171367 25.482597 67.245716 25.742894 67.3125 26.013672 C 67.379284 26.28445 67.43819 26.566044 67.488281 26.859375 C 67.538372 27.152706 67.579886 27.457554 67.613281 27.773438 C 67.646677 28.08932 67.672754 28.415474 67.689453 28.753906 C 67.706152 29.092339 67.712891 29.441754 67.712891 29.802734 C 67.712891 30.373106 67.696757 30.810848 67.667969 31.111328 C 67.645028 31.660109 67.594653 32.183198 67.515625 32.679688 C 67.476111 32.927932 67.43052 33.169167 67.376953 33.404297 C 67.323386 33.639426 67.262955 33.867858 67.195312 34.089844 C 67.127671 34.31183 67.05244 34.527513 66.970703 34.736328 C 66.888966 34.945143 66.798979 35.148134 66.703125 35.34375 C 66.607271 35.539366 66.504523 35.727768 66.394531 35.910156 C 66.28454 36.092544 66.167119 36.268368 66.042969 36.4375 C 65.918818 36.606857 65.787012 36.765899 65.644531 36.914062 C 65.502051 37.062227 65.350264 37.199196 65.189453 37.326172 C 65.028642 37.453148 64.858828 37.569986 64.679688 37.675781 C 64.500546 37.781577 64.310752 37.876314 64.113281 37.960938 C 63.91581 38.04556 63.709942 38.120137 63.494141 38.183594 C 63.278339 38.24705 63.054445 38.2995 62.820312 38.341797 C 62.586181 38.384094 62.342305 38.416355 62.089844 38.4375 C 61.837382 38.458645 61.575479 38.46875 61.304688 38.46875 C 61.048964 38.46875 60.799708 38.458188 60.558594 38.4375 C 60.31748 38.416812 60.083948 38.385119 59.857422 38.34375 C 59.630895 38.302381 59.413132 38.251497 59.201172 38.189453 C 58.989212 38.12741 58.783352 38.055367 58.585938 37.972656 C 58.388522 37.889946 58.198516 37.79673 58.015625 37.693359 C 57.832734 37.589989 57.656669 37.475587 57.488281 37.351562 C 57.319894 37.227539 57.159765 37.093889 57.005859 36.949219 C 56.851954 36.804549 56.703897 36.649684 56.564453 36.484375 C 56.429282 36.315018 56.302849 36.141732 56.183594 35.964844 C 56.064339 35.787956 55.952941 35.606287 55.849609 35.421875 C 55.746277 35.237463 55.651855 35.049351 55.564453 34.857422 C 55.477051 34.665493 55.397637 34.470923 55.326172 34.271484 C 55.254707 34.072045 55.190287 33.869051 55.134766 33.662109 C 55.079244 33.455168 55.031758 33.243735 54.992188 33.029297 C 54.952616 32.814859 54.92205 32.596926 54.898438 32.375 C 54.874824 32.153074 54.85921 31.926674 54.851562 31.697266 C 54.820975 31.366198 54.804687 30.779563 54.804688 29.9375 C 54.804686 29.095437 54.822774 28.508802 54.851562 28.177734 C 54.85921 27.940904 54.873371 27.709315 54.896484 27.480469 C 54.919597 27.251623 54.951648 27.025549 54.990234 26.804688 C 55.028821 26.583825 55.07484 26.367174 55.128906 26.154297 C 55.182973 25.94142 55.2449 25.732237 55.314453 25.527344 C 55.384007 25.322451 55.459874 25.12269 55.544922 24.925781 C 55.629969 24.728873 55.72367 24.536581 55.824219 24.347656 C 55.924768 24.158732 56.032379 23.971956 56.148438 23.791016 C 56.264495 23.610076 56.387959 23.434675 56.519531 23.261719 C 56.654927 23.084715 56.799758 22.918526 56.951172 22.763672 C 57.102586 22.608818 57.262269 22.464742 57.429688 22.332031 C 57.597105 22.19932 57.771671 22.077372 57.955078 21.966797 C 58.138485 21.856222 58.329914 21.756415 58.529297 21.667969 C 58.72868 21.579523 58.935046 21.501871 59.150391 21.435547 C 59.365735 21.369223 59.590974 21.315693 59.822266 21.271484 C 60.053557 21.227275 60.291837 21.193976 60.539062 21.171875 C 60.786289 21.149774 61.041542 21.138672 61.304688 21.138672 z M 40.048828 29.847656 L 40.048828 31.111328 C 40.048828 31.41968 40.037314 31.719741 40.017578 32.009766 C 39.997842 32.299791 39.969159 32.579857 39.929688 32.851562 C 39.890215 33.123269 39.840458 33.385279 39.78125 33.638672 C 39.722042 33.892065 39.653162 34.136007 39.574219 34.371094 C 39.495275 34.606181 39.407273 34.832039 39.308594 35.048828 C 39.209914 35.265617 39.100837 35.473378 38.982422 35.671875 C 38.864007 35.870372 38.735807 36.060022 38.597656 36.240234 C 38.459505 36.420447 38.310231 36.591971 38.152344 36.753906 C 37.994457 36.915617 37.831344 37.067512 37.662109 37.208984 C 37.492875 37.350456 37.319232 37.482275 37.138672 37.603516 C 36.958111 37.724756 36.771944 37.834531 36.580078 37.935547 C 36.388212 38.036563 36.189478 38.128185 35.986328 38.208984 C 35.783178 38.289783 35.575741 38.361286 35.361328 38.421875 C 35.146915 38.482464 34.926827 38.53188 34.701172 38.572266 C 34.475517 38.612651 34.242735 38.643873 34.005859 38.664062 C 33.768983 38.684253 33.527373 38.693359 33.279297 38.693359 C 32.932935 38.693359 32.596942 38.672243 32.273438 38.630859 C 31.949932 38.589476 31.638708 38.52808 31.337891 38.445312 C 31.037073 38.362546 30.747048 38.258916 30.46875 38.134766 C 30.190452 38.010615 29.923916 37.866706 29.667969 37.701172 C 29.543818 37.61863 29.426991 37.530988 29.318359 37.439453 C 29.209728 37.347918 29.108738 37.250911 29.015625 37.150391 C 28.922512 37.04987 28.83736 36.945437 28.759766 36.835938 C 28.682172 36.726437 28.612856 36.612612 28.550781 36.494141 C 28.488706 36.375669 28.433275 36.252436 28.386719 36.125 C 28.340162 35.997564 28.302522 35.866863 28.271484 35.730469 C 28.240447 35.594075 28.216691 35.451985 28.201172 35.306641 C 28.185653 35.161296 28.177734 35.01171 28.177734 34.857422 C 28.177734 34.722026 28.187655 34.588708 28.205078 34.458984 C 28.222502 34.32926 28.24837 34.202191 28.283203 34.078125 C 28.318036 33.954059 28.361834 33.833266 28.414062 33.714844 C 28.466292 33.596422 28.526093 33.481933 28.595703 33.369141 C 28.665313 33.256348 28.743101 33.14624 28.830078 33.039062 C 28.917055 32.931886 29.012856 32.826184 29.117188 32.724609 C 29.325848 32.521459 29.569667 32.331218 29.847656 32.150391 C 30.126095 31.970013 30.436969 31.802529 30.78125 31.648438 C 31.125531 31.494345 31.504052 31.352471 31.914062 31.224609 C 32.324074 31.096748 32.766558 30.982547 33.242188 30.880859 C 33.717816 30.779172 34.226445 30.690804 34.767578 30.615234 L 40.048828 29.847656 z "
     transform="matrix(0.55577778,0,0,0.55577778,-20.425755,0)" />
</svg>
