<svg aria-hidden="true" width="140.289" height="55.999" viewBox="0 0 37.118 31.123" xmlns="http://www.w3.org/2000/svg"><path style="fill:#4f46e5;fill-opacity:1;stroke-width:.539526;stroke-linecap:round;stroke-linejoin:round" d="M-20.425 0v31.123h77.968V0Zm6.33 5.277h1.103c.167 0 .3.058.401.175.117.1.176.234.176.401v4.19h3.11c.168 0 .301.058.401.175.117.1.176.234.176.401v.803a.502.502 0 0 1-.176.401c-.1.1-.233.15-.4.15h-3.111v6.548c0 .852.133 1.496.4 1.93.285.435.762.653 1.43.653h1.53c.168 0 .302.058.402.176.1.1.15.234.15.401v.828c0 .167-.05.31-.15.426-.1.1-.234.15-.401.15h-1.706c-2.592 0-3.888-1.462-3.888-4.389v-6.722h-1.981a.543.543 0 0 1-.402-.15.541.541 0 0 1-.15-.402v-.803c0-.167.05-.3.15-.401a.503.503 0 0 1 .402-.176h1.981V5.853c0-.167.05-.3.15-.4a.503.503 0 0 1 .402-.176zm12.968 4.515c1.872 0 3.21.434 4.013 1.304.819.87 1.228 1.956 1.228 3.26v8.153a.58.58 0 0 1-.175.426c-.1.1-.234.15-.401.15H2.434c-.167 0-.3-.05-.401-.15a.633.633 0 0 1-.15-.426v-1.104c-.369.552-.904 1.012-1.606 1.38-.702.368-1.606.551-2.71.551a5.24 5.24 0 0 1-2.282-.5A4.41 4.41 0 0 1-6.37 21.48a3.342 3.342 0 0 1-.602-1.931c0-1.104.451-2.007 1.354-2.709s2.132-1.17 3.687-1.405l3.763-.526v-.728c0-1.722-.995-2.583-2.985-2.583-.769 0-1.388.158-1.856.476-.468.3-.811.66-1.028 1.079-.067.167-.143.284-.226.35-.067.051-.167.076-.301.076h-.978a.6.6 0 0 1-.402-.15.598.598 0 0 1-.15-.402c0-.384.175-.827.526-1.33.368-.518.928-.96 1.68-1.328.753-.385 1.673-.577 2.76-.577zm15.25 0c1.756 0 3.068.56 3.938 1.68.886 1.104 1.354 2.517 1.404 4.239.017.184.025.468.025.853 0 .385-.008.669-.025.853-.05 1.706-.518 3.118-1.404 4.239-.87 1.12-2.182 1.68-3.938 1.68-1.79 0-3.144-.635-4.064-1.906v5.844a.502.502 0 0 1-.175.402.502.502 0 0 1-.402.176H8.353a.635.635 0 0 1-.426-.151c-.1-.1-.15-.243-.15-.427V10.62c0-.184.05-.326.15-.426.117-.1.26-.15.426-.15h1.054c.184 0 .326.05.426.15.1.1.151.242.151.426v1.104c.97-1.287 2.35-1.931 4.139-1.931Zm32.256 0c1.054 0 1.949.175 2.685.526.752.351 1.312.761 1.68 1.23.385.468.577.86.577 1.178 0 .15-.058.276-.175.376a.51.51 0 0 1-.377.151h-.953c-.234 0-.402-.092-.502-.276a7.36 7.36 0 0 0-.727-.727c-.184-.184-.46-.335-.828-.452-.368-.134-.828-.2-1.38-.2-.819 0-1.446.175-1.88.526-.435.335-.653.786-.653 1.355 0 .35.092.652.276.903.184.234.535.46 1.053.677.519.2 1.288.41 2.308.627 1.589.335 2.709.811 3.361 1.43.67.619 1.004 1.413 1.004 2.383 0 .719-.21 1.371-.627 1.956-.402.586-1.012 1.045-1.831 1.38-.803.335-1.765.501-2.885.501-1.154 0-2.132-.183-2.935-.551-.785-.385-1.37-.82-1.756-1.305-.384-.484-.576-.886-.576-1.203 0-.168.058-.293.175-.377.117-.1.243-.15.377-.15h1.053c.1 0 .175.016.226.05.066.033.15.108.25.225.385.469.811.837 1.28 1.104.485.268 1.129.402 1.931.402.903 0 1.622-.167 2.157-.502.552-.335.828-.82.828-1.455 0-.418-.117-.753-.351-1.003-.234-.251-.627-.477-1.179-.678-.535-.2-1.338-.418-2.408-.652-1.455-.317-2.483-.777-3.085-1.38-.602-.601-.903-1.38-.903-2.332 0-.62.184-1.213.552-1.78.367-.586.91-1.054 1.63-1.406.735-.368 1.605-.551 2.609-.551zm-24.506.25h1.029c.167 0 .3.05.401.15.117.085.184.168.2.252l2.835 9.582 3.01-9.457a.672.672 0 0 1 .226-.351c.117-.117.276-.176.476-.176h.803c.2 0 .36.059.477.176.117.1.192.218.226.351l3.01 9.456 2.834-9.581c.017-.084.075-.167.176-.251.116-.1.259-.15.426-.15h1.028a.511.511 0 0 1 .527.527l-.05.25-3.562 11.639c-.067.217-.159.376-.276.476-.117.1-.292.15-.526.15h-.904c-.435 0-.719-.208-.852-.626l-2.935-9.08-2.935 9.08c-.133.418-.418.627-.853.627h-.903c-.234 0-.41-.05-.526-.15-.117-.101-.21-.26-.276-.477L21.397 10.82l-.05-.25c0-.151.05-.277.15-.377.1-.1.226-.15.376-.15zm-8.227 1.706c-1.17 0-2.057.393-2.659 1.18-.585.769-.894 1.68-.928 2.733-.016.184-.025.51-.025.978 0 .468.008.794.025.978.034 1.02.352 1.907.953 2.66.62.735 1.497 1.103 2.634 1.103 1.204 0 2.082-.376 2.634-1.129.552-.752.852-1.74.903-2.96.016-.167.025-.41.025-.727 0-3.21-1.188-4.816-3.562-4.816zM1.832 16.589l-2.935.426c-1.203.168-2.115.452-2.734.853-.618.402-.928.903-.928 1.505 0 .686.276 1.213.828 1.58.569.368 1.237.552 2.007.552 1.103 0 2.007-.359 2.709-1.078.702-.72 1.053-1.765 1.053-3.136v-.702z"/></svg>